<?xml version="1.0" standalone="no"?>
<!DOCTYPE svg PUBLIC "-//W3C//DTD SVG 20010904//EN"
 "http://www.w3.org/TR/2001/REC-SVG-20010904/DTD/svg10.dtd">
<svg version="1.0" xmlns="http://www.w3.org/2000/svg"
 width="1600.000000pt" height="1600.000000pt" viewBox="0 0 1600.000000 1600.000000" fill="white"
 preserveAspectRatio="xMidYMid meet">

<g transform="translate(0.000000,1600.000000) scale(0.100000,-0.100000)"
fill="#ffffffff" stroke="none">
<path d="M9632 12439 c-258 -16 -516 -65 -751 -144 -147 -50 -339 -139 -348
-161 -3 -7 26 -55 64 -106 38 -51 84 -118 103 -148 60 -98 54 -96 125 -45 95
68 259 142 392 177 111 29 129 31 298 32 195 0 253 -8 405 -56 570 -181 940
-655 1051 -1348 9 -57 14 -166 13 -330 -1 -222 -4 -258 -28 -384 -70 -366
-198 -620 -425 -846 -133 -133 -209 -187 -371 -263 -180 -86 -342 -125 -560
-134 -288 -12 -561 39 -898 167 -46 18 -86 38 -88 45 -3 6 15 73 40 147 53
159 105 384 135 583 34 229 45 648 22 865 -26 248 -92 552 -161 745 -34 97
-163 352 -230 455 -251 389 -593 640 -980 720 -120 25 -350 39 -350 22 0 -6
10 -14 23 -18 106 -32 375 -202 519 -328 353 -309 628 -754 762 -1234 150
-533 155 -1032 16 -1592 -90 -365 -252 -696 -473 -970 -84 -103 -291 -313
-374 -379 l-43 -34 0 -218 c0 -143 4 -219 10 -219 6 0 45 17 88 39 158 79 545
237 749 307 l112 38 3 385 3 386 39 93 c21 50 42 94 46 97 5 3 48 -28 97 -68
193 -161 390 -270 593 -329 453 -131 1021 -109 1455 56 86 33 298 144 375 196
404 274 674 661 795 1141 48 188 59 296 59 564 0 193 -4 274 -17 355 -39 232
-102 422 -206 629 -75 150 -128 232 -229 356 -117 145 -170 197 -317 316 -264
212 -598 356 -965 413 -78 13 -422 39 -440 34 -3 0 -65 -5 -138 -9z"/>
<path d="M5380 12434 c-361 -31 -687 -117 -1020 -269 -179 -81 -408 -224 -555
-345 -69 -57 -287 -281 -347 -356 -298 -376 -504 -891 -557 -1394 -6 -52 -13
-113 -17 -135 -4 -22 -10 -1361 -13 -2975 -8 -3239 -2 -2982 -70 -3272 -53
-225 -125 -364 -260 -499 -49 -48 -110 -98 -141 -115 -48 -25 -55 -33 -55 -59
0 -45 49 -54 174 -33 156 27 341 100 475 186 472 306 766 759 885 1362 12 58
26 134 33 170 8 48 13 793 18 2810 7 3039 3 2863 71 3205 55 272 150 523 261
688 182 270 389 432 668 521 158 51 232 61 440 60 203 0 298 -15 489 -75 469
-150 851 -538 1054 -1074 198 -522 192 -1209 -14 -1725 -183 -458 -529 -801
-949 -943 -444 -150 -945 -125 -1425 70 -92 37 -293 137 -357 177 -35 21 -29
-5 13 -56 54 -67 248 -261 314 -314 241 -195 543 -324 890 -381 157 -25 601
-25 765 0 484 76 856 227 1170 477 234 185 476 489 598 750 316 677 332 1500
41 2162 -122 280 -244 460 -447 667 -126 127 -204 192 -360 295 -331 220 -670
342 -1117 401 -114 16 -551 28 -655 19z"/>
<path d="M14090 9621 c-235 -239 -601 -477 -1020 -664 -674 -300 -1149 -456
-2620 -862 -291 -80 -700 -199 -1055 -307 -309 -93 -942 -314 -1205 -421 -168
-68 -238 -99 -385 -168 -197 -92 -507 -266 -720 -404 -295 -190 -609 -462
-781 -675 -358 -444 -512 -933 -448 -1425 77 -597 385 -1081 1009 -1586 261
-211 758 -501 1170 -682 44 -19 108 -47 142 -62 34 -15 67 -25 74 -23 6 2 -24
30 -67 63 -291 217 -545 500 -709 789 -237 417 -320 921 -229 1376 36 179 114
398 187 530 23 41 45 82 48 90 14 31 164 248 223 320 62 76 273 293 356 366
250 218 618 469 1005 684 214 119 686 353 915 455 47 21 110 49 140 62 104 47
610 263 617 263 5 0 129 52 858 362 885 377 1370 633 1790 943 61 45 117 88
125 96 8 8 42 37 75 64 228 192 410 416 510 629 51 109 118 283 113 295 -2 5
-55 -44 -118 -108z"/>
<path d="M8355 5703 c-121 -97 -307 -281 -395 -388 -210 -258 -336 -521 -397
-830 -22 -112 -25 -452 -5 -560 24 -130 46 -207 59 -212 13 -5 156 75 191 107
9 8 39 33 66 55 68 56 215 221 273 308 153 230 262 532 309 857 19 125 32 750
17 750 -6 0 -59 -39 -118 -87z"/>
</g>
</svg>
